<svg id="Слой_1" data-name="Слой 1" xmlns="http://www.w3.org/2000/svg" viewBox="0 0 55 55"><defs><style>.cls-1{fill:#ff7092;}.cls-2{fill:#fff;}</style></defs><rect class="cls-1" width="55" height="55" rx="12"/><g id="JtovAu"><path class="cls-2" d="M19.83,27.15a12.24,12.24,0,0,1,5.38,1.24c1,.45,2,.86,3.06,1.25a12.38,12.38,0,0,0,1.64.46c1.32.3,2.65.59,4,.87.66.14,1.33.24,2,.34a1.9,1.9,0,0,1,1.31.77,1.31,1.31,0,0,1-.37,1.9,2.43,2.43,0,0,1-1.19.41,6.07,6.07,0,0,1-1.9-.07c-1.25-.25-2.5-.53-3.76-.76a13.78,13.78,0,0,0-3.62-.3,3.82,3.82,0,0,0-2.23.89,2,2,0,0,0-.3.35,5.74,5.74,0,0,0,0,.73.53.53,0,0,0,.18,0l.37-.17a6,6,0,0,1,2.19-.67,5.24,5.24,0,0,1,1,0A32.37,32.37,0,0,1,31,35c.9.19,1.81.39,2.72.51a6.35,6.35,0,0,0,2.53-.1c.72-.21,1.8-.61,2.11-1.37s.47-2.18-.09-2.76a1.65,1.65,0,0,0-.27-.19L38,31l.09,0a4.71,4.71,0,0,0,2.19-1c.39-.34.77-.71,1.15-1.06l2.43-2.25a1.4,1.4,0,0,1,1-.39,7.64,7.64,0,0,1,1.06.12,1,1,0,0,0,.49,0,1.73,1.73,0,0,1,1.3.1.86.86,0,0,1,.47,1.26,4.8,4.8,0,0,1-.3.48q-1.78,2.5-3.59,5A8.19,8.19,0,0,1,42.43,35a33.81,33.81,0,0,1-3.49,2c-1.37.74-2.76,1.45-4.14,2.19a9.47,9.47,0,0,1-2.64,1,8.24,8.24,0,0,1-2.76.1,47,47,0,0,1-6.06-1.48c-1-.3-2-.58-3-.85a5.8,5.8,0,0,0-3.35.15,43.17,43.17,0,0,0-4.86,2.06c-.46.22-.93.42-1.4.61a1,1,0,0,1-1.19-.11A3.64,3.64,0,0,1,9,40.09a13.67,13.67,0,0,1-2.18-4.41,14.67,14.67,0,0,1-.32-1.63,2,2,0,0,1,0-.54A.74.74,0,0,1,7,32.86c.79-.3,1.57-.64,2.37-.92a9.49,9.49,0,0,0,2.71-1.55c.6-.49,1.2-1,1.81-1.43A9.19,9.19,0,0,1,19.83,27.15Z"/><path class="cls-2" d="M44.49,14.33a11,11,0,0,1-.7,3.49,14.62,14.62,0,0,1-1.86,3.46,19,19,0,0,1-3.28,3.54,15.9,15.9,0,0,1-3.79,2.43c-.43.19-.89.33-1.34.5a1.25,1.25,0,0,1-.81,0,11,11,0,0,1-2.85-1.31,19.31,19.31,0,0,1-1.92-1.33,19.37,19.37,0,0,1-3.54-3.75,15.05,15.05,0,0,1-2-3.71,10.29,10.29,0,0,1-.63-3,6.22,6.22,0,0,1,3.43-6,5.09,5.09,0,0,1,3.15-.48A6.4,6.4,0,0,1,32,10,5.32,5.32,0,0,1,33,11.43a1.09,1.09,0,0,1,.08.15.83.83,0,0,0,.13-.14,5.28,5.28,0,0,1,1.41-1.8A6.46,6.46,0,0,1,37.85,8.2a5.46,5.46,0,0,1,3.37.54,5.36,5.36,0,0,1,2,1.7c.24.34.4.74.62,1.1a3.65,3.65,0,0,1,.45,1.1A6.47,6.47,0,0,1,44.49,14.33Z"/></g><path class="cls-2" d="M18.35,19.46a.93.93,0,0,1,1,1v.58a.25.25,0,0,0,.28.27c.23,0,.46,0,.69,0a.76.76,0,0,1,.63.27,1.34,1.34,0,0,1,.36.71,1.23,1.23,0,0,1-.3.83c-.14.22-.43.24-.69.25h-.44c-.56,0-.55.08-.53.55,0,.12,0,.23,0,.35a1,1,0,0,1-1,1.05,1,1,0,0,1-.78-.37,1.42,1.42,0,0,1-.27-1c0-.1,0-.2,0-.3s-.07-.29-.29-.3-.42,0-.64,0a1.11,1.11,0,0,1-1-.95.77.77,0,0,1,.21-.61,4.54,4.54,0,0,0,.38-.38.34.34,0,0,1,.3-.12c.25,0,.49,0,.74,0s.3-.08.31-.33a4.86,4.86,0,0,0,0-.54.62.62,0,0,1,.27-.63l.07-.07A.64.64,0,0,1,18.35,19.46Z"/></svg>