<svg id="Слой_1" data-name="Слой 1" xmlns="http://www.w3.org/2000/svg" viewBox="0 0 55 55"><defs><style>.cls-1{fill:#ff7092;}.cls-2{fill:#fff;}</style></defs><rect class="cls-1" width="55" height="55" rx="12"/><path class="cls-2" d="M9.16,40.63a.75.75,0,0,0,.07-.12,3.44,3.44,0,0,1,2.24-2.57l2.6-1,.29-.13c-.17-.13-.32-.23-.46-.35A3.2,3.2,0,0,1,13,33a2.68,2.68,0,0,1,2.43-2.08,2.87,2.87,0,0,1,3.17,2.85,3.13,3.13,0,0,1-1.51,3c.92.36,1.77.72,2.63,1a3.94,3.94,0,0,1,2,1.47l.21-.25a3.59,3.59,0,0,1,1.59-1.12c.94-.36,1.88-.74,2.86-1.13l-.25-.19a2.88,2.88,0,0,1-1.22-2.33,3.22,3.22,0,0,1,.74-2.46,2.84,2.84,0,0,1,4.95,1.82,3.33,3.33,0,0,1-.51,2.26c-.25.34-.53.66-.77,1,.72.29,1.59.65,2.46,1a3.87,3.87,0,0,1,2,1.45,1.67,1.67,0,0,0,.13-.12,3.61,3.61,0,0,1,1.67-1.24c.95-.36,1.88-.74,2.87-1.13a1.49,1.49,0,0,0-.19-.15c-1.65-1-1.54-3.5-.77-4.55a2.87,2.87,0,0,1,5.2,1.5,3.21,3.21,0,0,1-1,2.81c-.14.12-.3.23-.5.39l2.54,1a4.33,4.33,0,0,1,1.7,1,3.39,3.39,0,0,1,1,2.37c0,.62,0,1.23,0,1.85H9.16Z"/><path class="cls-2" d="M9.16,19c.87-.27,1.74-.58,2.63-.81A2.6,2.6,0,0,0,13.39,17c.49-.76,1.06-1.47,1.62-2.24.63.86,1.26,1.68,1.83,2.52a1.83,1.83,0,0,0,1.08.77c1,.29,1.93.63,2.93,1l-.19.28c-.61.86-1.24,1.71-1.84,2.57a1,1,0,0,0-.18.56c0,1.14,0,2.28,0,3.48l-1.5-.47a10.87,10.87,0,0,1-1.1-.36,2.42,2.42,0,0,0-2,0c-.83.32-1.7.55-2.6.83,0-.15,0-.27,0-.4,0-1,0-2.09,0-3.13a.82.82,0,0,0-.11-.44c-.69-1-1.39-1.92-2.09-2.88Z"/><path class="cls-2" d="M24.15,16.88c0-1.2,0-2.33,0-3.47a1.31,1.31,0,0,0-.21-.63c-.65-.92-1.31-1.83-2-2.79l1.13-.38c.73-.25,1.47-.48,2.2-.74a1.06,1.06,0,0,0,.45-.33c.69-.92,1.36-1.85,2.07-2.82.43.59.89,1.12,1.23,1.7a3.74,3.74,0,0,0,2.61,1.91,19.48,19.48,0,0,1,2,.65l-.23.34c-.59.81-1.19,1.62-1.76,2.45a1.27,1.27,0,0,0-.22.66c0,1,0,2,0,3.05v.4c-1.12-.36-2.2-.72-3.28-1a1.34,1.34,0,0,0-.69,0C26.37,16.16,25.29,16.52,24.15,16.88Z"/><path class="cls-2" d="M37,25.93c0-.8-.06-1.57,0-2.32a3.33,3.33,0,0,0-.87-2.69c-.5-.57-.9-1.22-1.38-1.88a16.77,16.77,0,0,1,1.86-.61,3.94,3.94,0,0,0,2.82-2,15.23,15.23,0,0,1,1.17-1.61c.08.1.15.17.21.26.63.86,1.26,1.72,1.9,2.57a.81.81,0,0,0,.39.29c1.1.38,2.22.74,3.37,1.12-.5.7-.94,1.4-1.47,2a3,3,0,0,0-.77,2.36c.07.81,0,1.64,0,2.52-.84-.27-1.65-.47-2.41-.79a3,3,0,0,0-2.44,0C38.6,25.46,37.79,25.66,37,25.93Z"/></svg>