<svg id="Слой_1" data-name="Слой 1" xmlns="http://www.w3.org/2000/svg" viewBox="0 0 369.44 49.53"><defs><style>.cls-1{font-size:45.17px;fill:#6d6d6d;font-family:Carlito-Bold, Carlito;font-weight:700;}.cls-2{letter-spacing:-0.01em;}.cls-3{fill:#444;}.cls-4{fill:#ff9d67;}</style></defs><text class="cls-1" transform="translate(58.64 37.23)">ПРОЕ<tspan class="cls-2" x="105.07" y="0">К</tspan><tspan x="130.14" y="0">Т</tspan><tspan class="cls-3" x="152.51" y="0"> </tspan><tspan class="cls-4" x="162.72" y="0">MIOLEX</tspan></text><path class="cls-4" d="M-55.07,73.88c0-4.38,0-8.75,0-13.13,0-1.43,0-1.43-1.39-1.45h-1.15c-1.45,0-1.45,0-1.43-1.39,0-1.11,0-1.13,1.11-1.13H-38.6c.41,0,1.12.1,1.16.26a6.63,6.63,0,0,1,0,2c0,.11-.48.24-.74.25-.77,0-1.54,0-2.31,0s-.86.27-.82.87c0,.34,0,.67,0,1,0,6.25.06,12.5.07,18.75,0,2.49-.08,5-.07,7.48,0,.76-.15,1.12-1,1.11-1.51,0-1.52,0-1.52-1.48V60.52c0-1.19,0-1.22-1.19-1.21-2.22,0-1.93-.19-1.93,1.92q0,8.35,0,16.73c0,1.68.16,3.35.15,5,0,3.26-.1,6.53-.16,9.79,0,1.06-.07,1.09-1.34,1.07-1.1,0-1.12,0-1.13-1.14,0-2.87,0-5.75,0-8.62,0-1-.15-1.91-.15-2.86,0-6.68.11-13.36.16-20,0-.33,0-.67,0-1,0-.58-.17-.84-.82-.89-2.31-.17-2.31-.18-2.31,2.13V76.14c0,3.78,0,7.56,0,11.34,0,1.06-.07,1-1.48,1-.85,0-1.05-.32-1-1.1C-55,82.91-55.07,78.39-55.07,73.88Z" transform="translate(70.73 -49.78)"/><path class="cls-4" d="M-32,56.81c1.12-.33,1.61.31,2,1.24,1.19,2.62,2.34,5.27,3.75,7.77a6.59,6.59,0,0,1-1.59,7.59,6.08,6.08,0,0,1-7.45.74,6.56,6.56,0,0,1-3.28-6.69,5,5,0,0,1,.46-1.2c1.3-2.73,2.66-5.42,3.88-8.18C-33.77,57-33.18,56.55-32,56.81Zm-.17,10.53h0c.91,0,1.82,0,2.73,0s1.07-.1.67-1c-1-2-1.95-4.07-2.93-6.1a2.79,2.79,0,0,0-.35-.42,2,2,0,0,0-.36.4c-1,2.11-2,4.24-3.07,6.35-.24.49-.13.72.42.72Zm0,2.43h-2.88c-.59,0-.83.19-.47.76a3.86,3.86,0,0,0,3.45,2,3.8,3.8,0,0,0,3.33-1.92c.31-.5.25-.82-.41-.82Z" transform="translate(70.73 -49.78)"/><path class="cls-4" d="M-64.56,75c-3.62.1-6.7-3.62-6.1-7.66a3.65,3.65,0,0,1,.36-.93c1.37-2.86,2.8-5.7,4.09-8.6.44-1,1.1-1,1.94-1s1.59,0,2.06,1.07c1.21,2.78,2.55,5.5,3.92,8.2a5.6,5.6,0,0,1,.4,3.77A6.35,6.35,0,0,1-64.56,75Zm.32-7.64h2.88c.53,0,.85-.11.54-.75-1-2.11-2-4.24-3.07-6.35-.3-.63-.51-.36-.72.07-1,2.08-2,4.16-3,6.23-.27.56-.15.8.47.8C-66.17,67.32-65.2,67.33-64.24,67.33Zm0,5.23a4.17,4.17,0,0,0,3.41-2.06c.26-.44.24-.73-.36-.73h-6c-.71,0-.66.38-.37.84A4.19,4.19,0,0,0-64.22,72.56Z" transform="translate(70.73 -49.78)"/><path class="cls-4" d="M-48.29,54c-5.33,0-10.67,0-16,0a1.37,1.37,0,0,1-1.38-2.11.81.81,0,0,1,.53-.36,5.66,5.66,0,0,1,1,0H-31.4c.55,0,.81.2.78.75,0,.19,0,.39,0,.58,0,1.12,0,1.14-1.08,1.16-1.45,0-2.89,0-4.33,0Z" transform="translate(70.73 -49.78)"/></svg>