<svg id="Слой_1" data-name="Слой 1" xmlns="http://www.w3.org/2000/svg" viewBox="0 0 54.94 54.94"><defs><style>.cls-1{fill:#ff9d67;}.cls-2{fill:#fff;}.cls-3{fill:#f2976d;}.cls-4{fill:#f1966c;}</style></defs><rect class="cls-1" width="54.94" height="54.94" rx="12"/><rect class="cls-2" x="20.96" y="20.9" width="25.12" height="18.04" rx="2.25"/><path class="cls-2" d="M37.69,39.05l4.74,3.42a.46.46,0,0,0,.73-.37V38.3a.47.47,0,0,0-.5-.46l-4.74.37A.46.46,0,0,0,37.69,39.05Z" transform="translate(-0.06)"/><path class="cls-2" d="M13.73,37.93a1,1,0,0,1-1-1V34.31h-.23a2.75,2.75,0,0,1-2.75-2.75V18a2.76,2.76,0,0,1,2.75-2.76H33.15A2.76,2.76,0,0,1,35.9,18V31.56a2.75,2.75,0,0,1-2.75,2.75H19.05l-4.76,3.44A1,1,0,0,1,13.73,37.93Z" transform="translate(-0.06)"/><path class="cls-3" d="M33.15,15.78A2.24,2.24,0,0,1,35.4,18V31.56a2.25,2.25,0,0,1-2.25,2.25H18.82s0,.08-.08.11L14,37.34a.48.48,0,0,1-.27.09.46.46,0,0,1-.46-.46V33.81h-.73a2.25,2.25,0,0,1-2.25-2.25V18a2.25,2.25,0,0,1,2.25-2.25H33.15m0-1H12.54A3.25,3.25,0,0,0,9.29,18V31.56a3.26,3.26,0,0,0,3,3.24V37a1.46,1.46,0,0,0,1.46,1.46,1.44,1.44,0,0,0,.85-.28l4.63-3.34H33.15a3.26,3.26,0,0,0,3.25-3.25V18a3.25,3.25,0,0,0-3.25-3.25Z" transform="translate(-0.06)"/><path class="cls-4" d="M24.08,27.51c2.51,0,5,0,7.52,0a.87.87,0,0,1,.55.14.69.69,0,0,1,.19.6.81.81,0,0,1-.55.42,17.19,17.19,0,0,1-1.76,0H16.36a.57.57,0,0,1-.54-.61.54.54,0,0,1,.57-.57c.18,0,.37,0,.56,0Z" transform="translate(-0.06)"/><path class="cls-4" d="M24.08,24.68H16.6a1,1,0,0,1-.58-.18.59.59,0,0,1-.17-.52.83.83,0,0,1,.4-.43,1.05,1.05,0,0,1,.51,0H31.45c.66,0,.95.18.94.6s-.29.58-.92.58Z" transform="translate(-0.06)"/><path class="cls-4" d="M25.82,19.5c1.93,0,3.86,0,5.8,0a1,1,0,0,1,.62.2.56.56,0,0,1-.26.93,1.46,1.46,0,0,1-.42,0H20c-.36,0-.71,0-.82-.46s.16-.71.62-.72c.78,0,1.55,0,2.32,0Z" transform="translate(-0.06)"/></svg>