<svg id="Слой_1" data-name="Слой 1" xmlns="http://www.w3.org/2000/svg" viewBox="0 0 55 55"><defs><style>.cls-1{fill:#ff857f;}.cls-2{fill:#fff;}.cls-3{fill:none;stroke:#ee8181;stroke-linecap:round;stroke-linejoin:round;stroke-width:1.41px;}</style></defs><rect class="cls-1" width="55" height="55" rx="12"/><g id="Z1yswA"><path class="cls-2" d="M12,23.18q0-4.92,0-9.84c0-.45,0-.84.53-1.05a.87.87,0,0,1,.83,0l2.85,1.39c1,.47,2,.91,2.94,1.4,1.19.59,2.36,1.21,3.54,1.81.71.35,1.45.66,2.17,1s1.33.64,2,1a1.16,1.16,0,0,1,.37.57,1.47,1.47,0,0,1,0,.47V39.44a1.61,1.61,0,0,1-.13.76,1,1,0,0,1-1.26.39c-.71-.3-1.41-.63-2.1-1L21.4,38.5c-.47-.23-.93-.49-1.41-.72l-1-.47c-1.05-.49-2.1-1-3.14-1.49s-2.16-1.12-3.25-1.65A1.07,1.07,0,0,1,12,33C12,29.74,12,26.46,12,23.18Z"/><path class="cls-2" d="M29.28,29.64V20a2.61,2.61,0,0,1,0-.56,1,1,0,0,1,.56-.79c1.13-.51,2.22-1.11,3.33-1.66.77-.37,1.56-.69,2.33-1.05.22-.1.42-.23.63-.33,1-.48,2-1,3-1.44.76-.37,1.5-.78,2.26-1.15.57-.29,1.14-.55,1.73-.79a.92.92,0,0,1,1.33.69,2.6,2.6,0,0,1,0,.56V32.8a3.37,3.37,0,0,1,0,.55.9.9,0,0,1-.52.75c-1.21.57-2.41,1.16-3.61,1.75-.64.31-1.27.66-1.92,1L33.91,39c-1,.51-2.08,1-3.13,1.53a1,1,0,0,1-1.34-.3,1.22,1.22,0,0,1-.16-.6c0-.72,0-1.44,0-2.16V29.64Z"/><path class="cls-2" d="M8.26,25.56V15.94a4.14,4.14,0,0,1,0-.61,1,1,0,0,1,1.37-.81,1.1,1.1,0,0,1,.79,1.09c0,1.16,0,2.31,0,3.47,0,4.94,0,9.89,0,14.84a1.37,1.37,0,0,0,1,1.44c1.17.5,2.31,1.06,3.44,1.64S17,38,18,38.47c.86.39,1.69.83,2.55,1.23,1.66.78,3.33,1.54,5,2.33.68.32,1.37.67,2,1a1.24,1.24,0,0,0,1.25,0c.71-.37,1.45-.7,2.18-1l1.17-.55c1.35-.66,2.66-1.39,4-2,1.13-.47,2.18-1.09,3.32-1.53.66-.26,1.27-.63,1.91-.93l3.61-1.66a5.4,5.4,0,0,0,.65-.4.61.61,0,0,0,.29-.59c0-.21,0-.41,0-.62q0-9,0-17.92a1.33,1.33,0,0,1,.45-1.15.9.9,0,0,1,.79-.21,1.15,1.15,0,0,1,.93,1.14c0,1.77,0,3.54,0,5.31v14.3c0,.84-.18,1.07-1,1.42-.63.28-1.24.6-1.86.91L44,38.24c-.55.27-1.09.55-1.64.8L38.15,41c-.72.33-1.43.69-2.15,1.05-1,.48-1.93,1-2.94,1.44S31,44.47,30,44.89c-.38.14-.74.34-1.11.52a1.43,1.43,0,0,1-1.26,0L25,44.22l-3.3-1.57-4.29-2c-1.05-.5-2.11-1-3.16-1.5-.9-.42-1.79-.87-2.68-1.3S9.88,37,9,36.59a1.31,1.31,0,0,1-.8-1.27c0-3.25,0-6.51,0-9.76Z"/></g><line class="cls-3" x1="15.53" y1="18.24" x2="23.72" y2="21.8"/><line class="cls-3" x1="15.53" y1="23.95" x2="23.72" y2="27.51"/><line class="cls-3" x1="15.53" y1="29.67" x2="23.72" y2="33.22"/><line class="cls-3" x1="40.97" y1="18.24" x2="32.78" y2="21.8"/><line class="cls-3" x1="40.97" y1="23.95" x2="32.78" y2="27.51"/><line class="cls-3" x1="40.97" y1="29.67" x2="32.78" y2="33.22"/></svg>