<svg id="Слой_1" data-name="Слой 1" xmlns="http://www.w3.org/2000/svg" viewBox="0 0 55 54.94"><defs><style>.cls-1{fill:#ff9d67;}.cls-2{fill:#fff;}.cls-3{fill:#f2976d;}</style></defs><rect class="cls-1" width="55" height="54.94" rx="12"/><path class="cls-2" d="M41.3,21.7c0,1.29,0,2.58,0,3.87a15.84,15.84,0,0,1-6.64,12.91C32.75,40,30.9,41.51,29,43c-.07,0-.12.11-.19.17-1.29,1-1.53,1-2.79-.09-1.9-1.56-3.79-3.12-5.73-4.62a16.45,16.45,0,0,1-6.5-10.7,7.83,7.83,0,0,1-.1-1.37q0-4.93,0-9.86c0-1.31.14-1.49,1.45-1.73s2.55-.35,3.8-.64c1.69-.41,3.38-.89,5-1.42,1-.32,2-.82,3-1.16a1.75,1.75,0,0,1,1.06,0c2.32.78,4.61,1.67,7,2.37a33.55,33.55,0,0,0,4.05.68c.16,0,.33,0,.49.06,1.65.27,1.74.38,1.75,2.08Z"/><path class="cls-3" d="M30.34,19.42v4.09h4.09v5.37H30.34V33H25V28.88H20.87V23.51H25V19.42h5.38m0-.89H25a.89.89,0,0,0-.89.89v3.2h-3.2a.89.89,0,0,0-.89.89v5.37a.89.89,0,0,0,.89.89h3.2V33a.88.88,0,0,0,.89.88h5.38a.88.88,0,0,0,.89-.88v-3.2h3.2a.89.89,0,0,0,.89-.89V23.51a.88.88,0,0,0-.89-.89h-3.2v-3.2a.89.89,0,0,0-.89-.89Z"/></svg>