<svg id="Слой_1" data-name="Слой 1" xmlns="http://www.w3.org/2000/svg" viewBox="0 0 55 55"><defs><style>.cls-1{fill:#ff857f;}.cls-2{fill:#fff;}</style></defs><rect class="cls-1" width="55" height="55" rx="12"/><path class="cls-2" d="M11.63,24.27a11.23,11.23,0,0,1-1.16,0c-.58-.08-.79-.49-.48-1a3.41,3.41,0,0,1,.73-.74c1-.84,2.1-1.65,3.14-2.48,1.33-1.05,2.64-2.11,4-3.16,1.67-1.34,3.36-2.67,5-4,1.1-.87,2.19-1.76,3.31-2.61a1.7,1.7,0,0,1,2.4-.07c.37.26.72.56,1.08.84,2.59,2.07,5.16,4.14,7.75,6.19C39.61,19,41.83,20.71,44,22.45a2.37,2.37,0,0,1,.6.58,1.51,1.51,0,0,1,.26.85c0,.39-.43.39-.76.39H41.6c-.87,0-1.07.18-1.1,1s0,1.7,0,2.54V29c0,.53,0,2.88,0,3.42l-.22-.05a4.13,4.13,0,0,1-2.77-1.71c-1-1.42-2-2.86-3.13-4.23a3.26,3.26,0,0,0-2.78-1.29c-1.37.05-2.74.09-4.12.17-.84.05-1.68.15-2.51.25-1.43.17-2.86.38-4.29.53a3.58,3.58,0,0,0-1.9.84,37.71,37.71,0,0,0-4.41,4.25c0-1.93,0-5,0-6,0-.58-.34-.87-1-.89S12.24,24.27,11.63,24.27ZM21,43.65a3.41,3.41,0,0,1-3.34-3.3A3.57,3.57,0,0,1,21,37a3.72,3.72,0,0,1,3.4,3A3.48,3.48,0,0,1,21,43.65Zm17,0a3.4,3.4,0,0,1-3.41-3.31A3.44,3.44,0,0,1,37.93,37a3.38,3.38,0,0,1,3.23,3.26A3.29,3.29,0,0,1,38,43.66ZM43.81,40c-1.08.07-1.25-.05-1.58-1.1a4.49,4.49,0,0,0-5.13-3A4.28,4.28,0,0,0,33.47,39c-.3,1-.46,1.08-1.52,1.08H26.87c-1.06,0-1.17-.08-1.49-1.11a4.61,4.61,0,0,0-7.18-2.35,4.29,4.29,0,0,0-1.61,2.16,5.37,5.37,0,0,1-.27.8c-.07.15-.19.34-.33.38a2.42,2.42,0,0,1-2.13-.13,1,1,0,0,1-.32-.72c0-.71,0-1.41,0-2.12h0c0-.49,0-1,0-1.48a3,3,0,0,1,.75-2.13,46.69,46.69,0,0,1,5-5.15,4,4,0,0,1,2.49-1c2.56-.24,5.11-.55,7.66-.79a11.76,11.76,0,0,1,2.22,0,2.81,2.81,0,0,1,2.1,1.27c.92,1.28,1.94,2.49,2.8,3.81,1,1.51,2.48,1.95,4.1,2.29a26,26,0,0,1,3.13.9A1.64,1.64,0,0,1,45,36.36c0,.73.16,1.46.16,2.2C45.15,39.49,44.72,39.9,43.81,40Z"/></svg>