<svg id="Слой_1" data-name="Слой 1" xmlns="http://www.w3.org/2000/svg" viewBox="0 0 55 55"><defs><style>.cls-1{fill:#ff857f;}.cls-2{fill:#fff;}.cls-3{fill:#f2976d;}</style></defs><rect class="cls-1" width="55" height="55" rx="12"/><path class="cls-2" d="M21.34,44.51a1.5,1.5,0,0,1-.75-.92c-.29-.8-.62-1.59-.93-2.4L17,42c-.68.19-1.25-.1-1.33-.73a1.45,1.45,0,0,1,.18-.78C17.06,38,18.29,35.5,19.51,33l.18-.37a12.13,12.13,0,0,1-5-10.87,11.75,11.75,0,0,1,3.73-7.92A12.25,12.25,0,1,1,34,32.66l.15.35c1.23,2.47,2.47,4.94,3.69,7.42a1.59,1.59,0,0,1,.19.76.9.9,0,0,1-1.15.79c-.94-.24-1.87-.51-2.85-.78l-.39,1c-.21.52-.42,1-.6,1.55a1.25,1.25,0,0,1-.63.77h-.6a1.67,1.67,0,0,1-.74-.85l-4.05-8.17-.2-.35-.2.38q-2,4.11-4.06,8.21a1.52,1.52,0,0,1-.72.78Z"/><path class="cls-3" d="M34.06,20.7a5.7,5.7,0,0,1-.49.75c-.78.79-1.58,1.55-2.38,2.32a.47.47,0,0,0-.17.51c.2,1,.37,2.09.54,3.14.13.76-.13,1.23-.8,1.35a1.18,1.18,0,0,1-.69-.12c-1-.5-2-1-2.94-1.54a.5.5,0,0,0-.55,0c-1,.53-1.94,1.05-2.93,1.54a1.6,1.6,0,0,1-.89.12.83.83,0,0,1-.65-1c.19-1.17.4-2.33.59-3.5a.58.58,0,0,0-.14-.43c-.8-.8-1.63-1.59-2.45-2.39a1,1,0,0,1-.29-1.17.93.93,0,0,1,.73-.55c1.17-.18,2.34-.36,3.51-.52a.41.41,0,0,0,.37-.27c.5-1,1-2,1.51-3.06a.93.93,0,0,1,1.27-.56,1.44,1.44,0,0,1,.57.6c.52,1,1,2,1.48,3a.49.49,0,0,0,.43.33c1.16.15,2.32.33,3.48.52a.89.89,0,0,1,.8.94Zm-11.27.59-.06.1a1.73,1.73,0,0,1,.28.19l1.38,1.34a1,1,0,0,1,.32.87c-.07.42-.15.84-.22,1.27s-.11.68-.17,1.08c.68-.36,1.31-.67,1.91-1a1.17,1.17,0,0,1,1.25,0c.47.27,1,.5,1.44.75l.48.24c-.14-.78-.25-1.5-.38-2.22a1,1,0,0,1,.28-1l.69-.68.94-1L28.73,21a1,1,0,0,1-.87-.62c-.29-.6-.58-1.19-.88-1.78a1.76,1.76,0,0,0-.15-.23c-.29.59-.6,1.11-.82,1.68a1.49,1.49,0,0,1-1.46,1C24,21.08,23.38,21.21,22.79,21.29Z"/></svg>