<svg id="Слой_1" data-name="Слой 1" xmlns="http://www.w3.org/2000/svg" viewBox="0 0 55 55"><defs><style>.cls-1{fill:#ff9d67;}.cls-2{fill:#fff;}</style></defs><rect class="cls-1" width="55" height="55" rx="12"/><g id="YxDh86"><path class="cls-2" d="M17.77,40.12A12.67,12.67,0,1,1,30.41,27.37,12.68,12.68,0,0,1,17.77,40.12Zm-.22-5.42a7.63,7.63,0,0,0,5.21-1.9,13.12,13.12,0,0,0,1.46-1.69.55.55,0,0,0-.14-.8.58.58,0,0,0-.83.16l-.2.28a6.51,6.51,0,0,1-8.51,1.92,6.64,6.64,0,0,1-2.27-2.14.59.59,0,0,0-.95-.16c-.23.23-.24.5,0,.85A7.62,7.62,0,0,0,17.55,34.7Zm4.08-10.13a1.24,1.24,0,0,0,0-2.48,1.24,1.24,0,1,0,0,2.48Zm-6.54-1.23a1.24,1.24,0,1,0-2.48,0,1.24,1.24,0,0,0,2.48,0Z"/></g><g id="YxDh86-2" data-name="YxDh86"><path class="cls-2" d="M37.6,40.12A12.67,12.67,0,1,1,50.24,27.37,12.67,12.67,0,0,1,37.6,40.12Zm-.22-5.42a7.63,7.63,0,0,0,5.21-1.9,13.12,13.12,0,0,0,1.46-1.69.55.55,0,0,0-.14-.8.58.58,0,0,0-.83.16l-.21.28a6.5,6.5,0,0,1-8.5,1.92,6.64,6.64,0,0,1-2.27-2.14.59.59,0,0,0-1-.16c-.23.23-.24.5,0,.85A7.62,7.62,0,0,0,37.38,34.7Zm4.08-10.13a1.24,1.24,0,0,0,0-2.48,1.24,1.24,0,1,0,0,2.48Zm-6.54-1.23a1.24,1.24,0,1,0-2.48,0,1.24,1.24,0,0,0,2.48,0Z"/></g><path class="cls-2" d="M50.24,27.37"/></svg>